<svg width="36" height="25" viewBox="0 0 36 25" fill="none" xmlns="http://www.w3.org/2000/svg">
<path d="M2.59998 10.75C1.63348 10.75 0.849976 11.5335 0.849976 12.5C0.849976 13.4665 1.63348 14.25 2.59998 14.25V10.75ZM19.4 14.25C20.3665 14.25 21.15 13.4665 21.15 12.5C21.15 11.5335 20.3665 10.75 19.4 10.75V14.25ZM2.59998 0.25C1.63348 0.25 0.849976 1.0335 0.849976 2C0.849976 2.9665 1.63348 3.75 2.59998 3.75V0.25ZM33.4 3.75C34.3665 3.75 35.15 2.9665 35.15 2C35.15 1.0335 34.3665 0.25 33.4 0.25V3.75ZM2.59998 21.25C1.63348 21.25 0.849976 22.0335 0.849976 23C0.849976 23.9665 1.63348 24.75 2.59998 24.75V21.25ZM33.4 24.75C34.3665 24.75 35.15 23.9665 35.15 23C35.15 22.0335 34.3665 21.25 33.4 21.25V24.75ZM2.59998 14.25H19.4V10.75H2.59998V14.25ZM2.59998 3.75H33.4V0.25H2.59998V3.75ZM2.59998 24.75H33.4V21.25H2.59998V24.75Z" fill="white"/>
</svg>
